<?xml version="1.0" encoding="utf-8"?>
<!-- Generator: Adobe Illustrator 23.0.1, SVG Export Plug-In . SVG Version: 6.00 Build 0)  -->
<svg version="1.1" id="contents" xmlns="http://www.w3.org/2000/svg" xmlns:xlink="http://www.w3.org/1999/xlink" x="0px" y="0px"
	 viewBox="0 0 568.4 566.5" style="enable-background:new 0 0 568.4 566.5;" xml:space="preserve">
<style type="text/css">
	.st0{fill:#4C4C4C;}
</style>
<title>icon</title>
<path class="st0" d="M420.3,250.3V394c0,14.8-13.2,26.7-29.6,26.7H68.5c-16.3,0-29.5-12-29.5-26.7V102.6c0-14.8,13.2-26.7,29.5-26.7
	h162.7l38.9-35.2H68.5C30.7,40.8,0.1,68.5,0,102.6V394c0.1,34.2,30.7,61.9,68.5,62h322.3c37.8-0.1,68.4-27.8,68.5-62V215
	L420.3,250.3z"/>
<path class="st0" d="M110.6,388.1c-10.8,0-19.5-8.3-19.5-18.5c0-1.6,0.2-3.2,0.7-4.8l37.4-132.1c0.9-3.1,2.6-6,5-8.3l222-210.3
	c7.6-7.2,20-7.2,27.6,0l102.1,96.7c7.6,7.2,7.6,18.9,0,26.1l-222,210.3c-2.4,2.3-5.4,3.9-8.7,4.8l-139.5,35.4
	C114,387.9,112.3,388.1,110.6,388.1z M178.2,335.1l48.5-12.3l-6.4-15.8l-35.6-8.5l-8.9-33.7l-15.7-5.7L147,305.6L178.2,335.1z
	 M242,283.9l10,24.8l195.1-184.8l-77.1-73L175.2,235.4l25,9l8.4,31.6L242,283.9z"/>
</svg>
